/* XPM */
static char *_19c3f055c2b4181acb636b1414e7563yti5ei5vKUe1iRnd[] = {
/* columns rows colors chars-per-pixel */
"64 64 170 2 ",
"   c #56543F",
".  c #565343",
"X  c #595645",
"o  c #5C5946",
"O  c #59554C",
"+  c #5D5A4A",
"@  c #5F5C52",
"#  c #615E4E",
"$  c #615E52",
"%  c #64624E",
"&  c #656253",
"*  c #696655",
"=  c #6C6A56",
"-  c #676359",
";  c #6A665B",
":  c #6D6A5B",
">  c #716E5D",
",  c #6F7159",
"<  c #74725E",
"1  c #6A6760",
"2  c #6E6B61",
"3  c #716E62",
"4  c #757262",
"5  c #797664",
"6  c #7C7966",
"7  c #767269",
"8  c #7A766B",
"9  c #7E7B6B",
"0  c #7E7C70",
"q  c #807E67",
"w  c #817E6C",
"e  c #817E73",
"r  c #837E7A",
"t  c #84816D",
"y  c #858274",
"u  c #898673",
"i  c #8D8B75",
"p  c #858178",
"a  c #898579",
"s  c #8C897B",
"d  c #918E7C",
"f  c #95937E",
"g  c #98967F",
"h  c #8E8A81",
"j  c #969384",
"k  c #999684",
"l  c #9D9B87",
"z  c #979389",
"x  c #9A968D",
"c  c #9E9A8B",
"v  c #A19E8B",
"b  c #A29E93",
"n  c #A4A28C",
"m  c #A8A68F",
"M  c #A6A391",
"N  c #A9A694",
"B  c #ADAB94",
"V  c #AAA69D",
"C  c #ADAA99",
"Z  c #B0AD9C",
"A  c #B4B19D",
"S  c #B6B2A2",
"D  c #B9B6A3",
"F  c #BEBCA4",
"G  c #B6B2A9",
"H  c #BAB6AA",
"J  c #BFBBAB",
"K  c #C1BEAC",
"L  c #C2BEB4",
"P  c #C4C2AD",
"I  c #C9C7AE",
"U  c #C6C3B2",
"Y  c #C8C5B4",
"T  c #CCC9B5",
"R  c #C5C1B8",
"E  c #CBC7BC",
"W  c #CDCABB",
"Q  c #D1CEBB",
"!  c #D1D0B4",
"~  c #D5D3BE",
"^  c #D8D6BD",
"/  c #DDDCBE",
"(  c #CECFC1",
")  c #D1CEC2",
"_  c #D5D2C2",
"`  c #D9D6C3",
"'  c #D6D8C0",
"]  c #DDDAC5",
"[  c #D7D3CA",
"{  c #D9D6C9",
"}  c #DEDBC9",
"|  c #DEDAD2",
" . c #E0DEC6",
".. c #E1DECB",
"X. c #E2DED1",
"o. c #E4DFD9",
"O. c #DEE0CA",
"+. c #E4E3C6",
"@. c #E6E5CC",
"#. c #E9E6CD",
"$. c #E7EACD",
"%. c #EAE9CD",
"&. c #E6E2D7",
"*. c #E6E4D1",
"=. c #E9E7D0",
"-. c #E8E6D1",
";. c #E8E5D2",
":. c #E9E7D2",
">. c #E9E6D3",
",. c #E8E5D4",
"<. c #EAE7D4",
"1. c #EAE7D6",
"2. c #E8E5D6",
"3. c #E9E6D2",
"4. c #EBE9D0",
"5. c #EAE8D1",
"6. c #EAE8D3",
"7. c #EBE9D2",
"8. c #ECEAD1",
"9. c #EDEBD2",
"0. c #EDECD0",
"q. c #EFEED0",
"w. c #EBE9D4",
"e. c #EBE8D5",
"r. c #ECEAD5",
"t. c #ECE9D6",
"y. c #EDEBD6",
"u. c #EDEAD7",
"i. c #EEECD5",
"p. c #EFEDD4",
"a. c #EFEDD7",
"s. c #ECEAD4",
"d. c #E7E3D8",
"f. c #E9E5D9",
"g. c #EAE6DA",
"h. c #EDEAD9",
"j. c #EFEDD8",
"k. c #EDEBD9",
"l. c #F1EFD6",
"z. c #F0EED5",
"x. c #F0EED6",
"c. c #F1EFD8",
"v. c #F1EFDA",
"b. c #F1EEDB",
"n. c #F0EDDA",
"m. c #F1EEDF",
"M. c #F0EDDC",
"N. c #F1EEDB",
"B. c #F2F1D5",
"V. c #F3F1DA",
"C. c #F2F0D9",
"Z. c #F3F1DC",
"A. c #F4F2DD",
"S. c #F6F4DD",
"D. c #F4F2DC",
"F. c #F8F6DF",
"G. c #FAF8DF",
"H. c #EFEBE0",
"J. c #EFEBE1",
"K. c #F6F3E2",
"L. c #F7F4E3",
"P. c #F6F3E2",
"I. c #F9F7E2",
"U. c #FBF9E4",
"Y. c #F5F2E9",
"T. c #FAF6EA",
"R. c #F8F4E8",
"E. c #FFFCEB",
"W. c #FFFCE9",
"Q. c #FFFBF0",
/* pixels */
"+.+.%.+.@.@.#.;.~ 6.;.O.%.%.+.%./  .+.@.%.%.%.+.+.+.%.+.+.%.+.+./ %.+.q.%.+.#.} @.-.#.@.@.#.@.@.@.@.%.@.@.#.@.#.@.@.@.@.@.@.@.@.",
"+.+.+.%.@.#.@.;.;.C.@.@.-.#.+.%.q.q.%.+.%.%.+.+.+.%.@.%.%.%.+.%.+.q./ +.%.%.V.a.r.#.@.#.%.@.+.+.@.@.@.@.@.@.@.@.@.#.#.@.@.#.@.#.",
"+.+.+.+.@.@.-.@.6.6.@.@.6.#.+.%.#.+. . .+.q.%.%.%.+.+.%.+.+.+.%.+.%.+.q.8.@.@.` @.{ ` @.%.#.+.%.@.#.%.+.@.#.@.@.@.@.@.@.@.@.@.@.",
"+.%.+.%.#.@.@.@.@.} } @.%.@.@.%.@.#.#.#.%.%.%.+.+.@.%.+.%.+.%.+.%.%.+.+.@.6.j.j.b.r.7.-.%.%.%.@.#.#.#.#.@.@.#.#.@.#.@.#.#.@.@.#.",
"q.+.%.+.q.+.#.@.*.@.@.6.#.@.@.@. ...@.@...@.*.@.@.%.@.#.+.@.%.+.@.+.6.@.@.;...@...r.r.@. .#.#.+.@.@.@.@.@.#.@.@.@.#.@.@.@.#.@.@.",
"+.+.+.+.%.+.@.#.-.@.-.-.@.6.r.@.n.<.2.r.-.@.@.@.%.+.@.@.@.@.+.+.+.+.%.-.-.j.@.,...-.<.7.%.8.%.+.@.#.#.@.@.@.@.#.@.@.@.#.@.@.#.@.",
"q.%.+.%.%.+.%.#.@...@.@.@.a.#.Y } ` { @.f.8.@. .#.@.#.#.@.%.+.%.x. .@.] @.b.&.*.Q Y _ <.V.8... .@.@.@.@.@.@.#.@.@.-.@.@.@.@.@.@.",
"+.+.%.+.+.%.%.#.-.@.6.-.@.#.T l # * w Z { <.<.*.#.#.@.@.@.@.@.@.+.} C.C.2.W u $ - # q D ..@.@.x.@.#.@.#.#.@.@.@.@.@.@.#.@.#.@.@.",
"#.@.@.@.@.#.@.#.` S.` ;.6.} t % # # : * m <.} ..` n...7.b.x.^ b.^ F.] -. .- 5 X # - # 4  ...x. .@.#.#.@.@.@.@.@.@.@.@.#.@.-.@.@.",
"@.@.#.@.@.@.@.@.@.a.@.;.;.} < % s K 3 - > M W.*.t.<.*.*.....@.f.6.+.b.2.* < X y m.` 3 o j ` -.7.@.@.@.@.#.@.#.@.@.#.@.@.@.@.#.@.",
";.@.@.;.@.#.#.@.#.@.6.;.@.` % = { b.` ; $ 3 X.&.f.{ *.h...X.o.Q Q ^ T < ; # b g.o...& + 4 r.@...@.#.#.@.@.@.@.#.@.@.@.@.@.@.@.@.",
";.;.@.#.@.@.@.@.#.@.r.6...K + : L._ o._ > # 3 *.N w > ; $ - 3 $ * < # # $ e g.{ f...; # : <.@.<.*.@.@.@.@.#.@.#.@.#.@.#.#.@.#.@.",
";.@.;.@.%.+.#.@.+.6.*.h...N $ = Q L.b.*.y & $ $ > $ $ 3 3 $ @ 3 = + & 6 > ) *.J.Q.) 3 $ y ....-.@.@.@.#.@.@.#.@.@.>.@.#.@.#.@.@.",
";.*.;.@.%.@.#.#.+.8...6.2.M & * b.X.>.<.@.< y $ 3 : 2 h 7 $ r [ w t } R f.R.{ f.R e O : Y h.<...>.@.@.@.@.#.@.@.@.@.@.@.@.@.@.#.",
"*.;.;.@.@.@.@.@.-.@.@.@.k.D & * .... .h.<.X.Y W b h b | h $ r o.j t { K.E X.g.| R $ + > &.f.S.*.@.@.@.#.@.@.@.#.@.#.@.@.#.@.@.@.",
"@.;.@.;.@.@.@.@.V.} 6...P.W - * ..b...@.>...o.K.S r z o.0 O r X.i t Q @...P.{ f.) & * : X.~ *.@.*.#.@.@.@.#.@.@.@.@.#.@.@.@.@.#.",
"@.@.@.@.+.+.%.+.#.z.] -.-.{ 3 :  . .@.@.#.#.@.@.P S Z ..u # 4 -.B F ! +.7.*.@... .X.X = 3 ..m.@.#.@.#.+.+.%.@.@.@.@.#.@.@.@.@.#.",
"@.@.@.@.+.%.+.%.+.%.+.-.-.Q > = ..+.+.%.#.+.@.@.8...] #.m 6 i ` / +.+.%.%.%.7.%. .@.t = > ..&.2.@.@.#.#.%.+.+.%.#.@.@.@.@.#.@.@.",
"@.@.$.@.+.+.+.%.@.#.-.*.-.K > < @.#.+.+.@.@.@.@.#.@.x.@.~ A ! x.%.%.#.#.@.@.*.7.*.z.K & & _ X.<.#.%.+.#.%.@.@.#.@.#.@.@.@.#.@.#.",
"@.@.$.+.%.%.+.+.+.@.r.@.2.S * 4 #.#.#.#.@.@.@.@... .b...8.` <.x. .+. .@. ...@.@.@.n...= & S ..f.#.+.%.+.+.%.+.@.@.@.@.#.@.@.@.@.",
"@.@.+.%.+.%.+.%.@.@.7.*.2.Z : 4 #.#.@.@.@.@.-.@.@...@.@.n.@.>.@.%.%.*.7.-.-.*.X...m.*.: * s ..<.#.#.@.@.#.@.#.@.#.@.#.@.#.@.#.@.",
"@.@.%.+.%.+.+.+.@.#.-.@.<.K > > @.@.@.@.@.@.*.@.@.....-.<.7.*.%.z.%.@...*.7.7.7.X.n.X.> - 3 X.f.#.@.@.#.@.@.@.@.@.@.@.@.@.@.@.@.",
"%.+.%.@.%.+.q.+.@.7...-.2.Q > > ..@.@.@.-.@.@.@.x.<.<.7.,...X...*.........*.-.2.&.f.&.; $ > *.&.@.*.#.@.-.@.*.*.@.@.@.#.@.@.#.@.",
"#.%.+.%.+.%.%.+.@.x. .<.-.{ 3 * }  .@.@.#.;.@.......x...<.*.b.t.r.<.<.x.n.<.*.X.<.<.n.& $ 7 X.&.*.@.*.#.*.#.@.#.@.#.@.@.#.@.#.@.",
"#.#.@.@.@.#.@.#.} @.a.} f.&.3 > F @.C.@.] a.r.*.Q 2...@.*...t.7.....X.#.b.M.o...{ b._ 6 . 3 { Q A P ..a.$.} ;.@.@.-.@.@.@.@.@.%.",
"#.@.#.@.@.@.@.@.a.@.2.@...} e & M a.r. .-.@.6.@.j.U.2.-.*...>.X.*.n.l... ...<.,.2.h.~ : # & 4 & * < % > -.;.j.~ @.@.#.@.#.@.@.+.",
"@.-.@.@.@.#.@.6.a.` } 6.f.&.x X = ` @.@.I.@.-.*...*...*.<.,.@.{ K d = * d Q b...-.*.@.< & % . = * & * * t } } r.-.@.@.@.%.+.@.@.",
";.@.@.;.@.@.@.@.r.r.*.*.X.X.H 8 > T -.@.2.@.r.r.-.U k < # # & # # % > = # k { *.r.} { 4 # w l ..h.] + * X -.W.@.@.;.@.#.%.@.@.@.",
";.@.;.@.@.@.@.@.@.@.D t 4 ; : + # g @.-.} 6.*.} % o # * * > * # = # % % < A b.l.;.} I.@.`  .r.b...b.D 4 < h.T ;.@.@.@.@.+.@.%.+.",
";.;.@.;.@.@.@.@.2.P t + > 3 7 3 < i ..r.] b.@.{ < o # & > v Y  .` ..x.x.z.F.S. .r.} @.-.} @.V...f.X.4 X & } r.j.-.#.@.#.%.+.+.%.",
"@.;.@.@.;.;.@.@.` 6 + w L ) ) L @.{ a.@.] 6.;.k.= 5 K *...,...{ #.7.*... .*.@. .@.#.6.8.#.+.@...{ p & & y L.,.@.;.@.%.+.+.%.%.+.",
";.@.;.@.@.@.@.;.8.: , Z &.&.f.X.@.@.@.;.A.6...*.4 w U <...,.f.n.-.7.@...@.7.@.7.%.z.#. .q.V. .r.k X * $ 1.;.;.@.;.@.+.$.%.+.%.@.",
"@.@.@.@.+.$.#.#./ t . q _ &.f...@.#.@.@.>.*.&.,.: 7 ) >.3.3.9. .~ ] @.-.@. .#.z.] %.+.+.-.@.*.@.: = w } -.8.#.] @.#.%.@.@.#.@.@.",
"-.@.#.#.#.@.@.+.@.I > # 4 e X.f.+.#.@.#.@.&.,.f.7 r  .o.X.#.9.#.U.b.7.r.8.#.+./ +.%.@.#.@.@.*.@.8 w S b.-.+.#.%.+.@.+.@.@.@.@.#.",
"@.;.@.@.+.%.+.%.z. .Q 6 o > b 2.#.+.@.@.*.*.,.o.: 7 ) X...#.3.#.....] ..#.#.#.%.+.%.@.#.-...@.@.< 6 ~ r.*.} @.q.%.@.+.%.@.#.@.@.",
"@.@.@.#.%.+.%.+. .S.7._ C 4 a Z +.%.#.@.*.,.&.,.w r  .t.3.i.z...x.@.@.-.%.#.+.+.@.#.@.8.-.@.-.} * > { ..@.@.@.+.+.%.%.+.@.@.@.-.",
";.@.@.@.%.+.%.%. .#...x.{ j 5 y #.#.+.%.>.>.,.>.$ # j j i i i q t < t N ^ V.B.#.@.+.@.8.#.#.-.Q < 6 <...8.8.@.+.+.%.+.+.#.@.-.@.",
"@.;.@.#.+.%.#.+.q. .8.{ _ K - q #.+.#.#.#.X.,.o.w : s w < < q q 6 6 u B ~ %.%.#.+.@.@.#.@.-.2.J = 8 b.-.@.@.@.@.%.+.%.$.@.@.@.;.",
"@.@.@.@.#.+.+.#.+.G.` <.f.K e > #.@.#.#.#.>.,.<.> $ v z d g v v Z F T ` .. .@.%.+.#.*.@.} h.*.N & 6 ..-...@.@.@.@.$.@.%.@.@.@.;.",
";.;.@.#.#.+.#.@.@...@.n.b.) > > @.@.@.#.#.3.o.X.4 e _ X...X.9.3.....-.a.r.@.+.@.@.-.-.@.] j.@.l > t { 8.2.%.#. .+.+.@.@.#.@.;.@.",
"@.@.@.#.@.%.+.%...z.@.@.f.X.3 < ` %. .6.@.2.@.2.$ w K f.;...;.X...@.&.@.+.#.6. .+.@.-.@.*.@.X.8 * d } *...B.+.+.%.#.%.@.@.#.@.@.",
"@.;.@.@.@.@.@.+.@.8...*.h.X.3 3 ~ 8.@.6.@.2.@.2.4 q B  ...X.D.b.@.X.-.h.-.] } q. .#.@.*.*.*.2.6 : N ..@.@.x.@.#.%.+.+.%.@.@.@.#.",
";.;.@.#.@.@.%.$.@.8.@.-.r.*.5 3 P 6.@.-.@.-.*.*.q = v >.L.u.X.Q h...` _ I n m ] ..r.@.2...*.2.4 > U ;.@.;.-.8.%.+.%.+.+.@.@.;.@.",
"@.@.@.@.@.%.+.+.@.-.@.-.2.&.8 : A 6...%.-.-.*.2.g * e Q X.~ T C 6 5 > 4 5 % q I  .r.@.r...@...> > { 2.@.r.@.%.@.%.+.%.@.#.@.;.@.",
"@.%.@.%.@.+.%.+.#.#.@.2.-.&.w : v 8.@.6.-.*.-.-.T q # > < > < : * > & # = = f ] @.r.@.6.*.*.W : < *.2...j.@.#.@.+.%.@.@.@.#.@.;.",
"@.%.@.@.@.@.@.%.#.@.*.2.*.2.e : i #...-.<.@.-.*.c.B q > > : 4 4 8 v U ] -. .` -.@.8.;.,.*.*.V : 6 ..2...r.+.#.@.@.@.@.@.@.@.@.@.",
"@.@.@.@.+.%.+.%.-.@.-.<.X.2.y ; w -...-.-.@.-.-.V..._ ` .... .X.X.f.2.*.@...@.@.@.*.;.@.,.2.s * u ..r.@.6.+.$.%.%.+.@.@.@.@.;.@.",
"@.@.@.@.%.+.@.@.#.@.-.<.*.f.y * 6 #.@.#.8.@.#.#. .z.X. .3.3.3.B.2.@.*.-.-.r.8.@.@.@.6...1.2.6 = j } h...#.@.$.q.+.%.@.%.@.#.@.@.",
"#.@.+.%.%.+.#.#.@.2.X.*.*.X.h X = +.B.+.+./ #./ +.+.%.+.+.%.+.+.$.O.O.O.$.O.$.O.O.$.O.$.6.@.< , Z  .r.-.` a.$.@.@.@.@.@.#.#.@.@.",
"+.@.+.+.+.%.@.@.A.2.*.f.g.) h : f  .+./ %.+.q. .%.%.+.%.%.#.%.+.$.$.$.$.$.$.$.$.$.B.O.O.O.^ , % ` @...-.y.6.@.-.@.@.@.#.@.@.#.@.",
"+.%.%.+.#.+.#.#.] ] 1.X.E z ; = K #. .X.q.%.0. . .#.%.%.3.#.3.3.$.$.$.$.$.O.$.o.O.$.O.h.k.O.q : % % : l @.1.@.q.@.@.@.@.@.#.@.+.",
"+.+.%.+.#.+.@.#.A.m.1.N 9 X - p X.<...o. . .D.3.X.....#.;.3.3.;.d.O.$.O.2.O.$.O.X.g.X.2.X.( r 3 q = o 6 ] a.} ` @.@.@.@.@.#.+.%.",
"+.%.%.+.+.%.@.%.....Y > $ 8 b K K ) J.T.M.o.g.X.b.M.o.f.o.f.o.o.d.d.d.2.d.d.d.2.o.g.o.d.J.Y.X.o.Y l : < / 6.;.6.#.@.#.@.@.@.@.%.",
"%.+.+.%.q.+.@.%.*.b.Q 6 + & : 2 3 b L ) L G V z r r e e w 7 7 7 1 , , 2 3 , 2 3 3 7 1 1 1 2 1 3 < o   u ] 6.@.A.@.@.@.@.#.@.#.+.",
"+.+.q.+.+.+.+.%.#.n._ v 6 6 $ # $ $ 7 $ $ $ ; ; > 1 ; ; $ $ 1 $ % % - @ & - - - @ - - , : ; 2 2 + < g T 6.a.} @.@.#.#.@.#.#.+.%.",
"%.+.+.+.+.%.q.+.#.-.*.<.@.{ d 4 3 1 $ $ 2 7 * ; : : ; : 2 3 7 7 0 0 0 0 0 y y y s s p y e e r e l T @.a.} C.%.@.@.@.@.@.@.+.$.@.",
"+.@.+.$.%.+.@.@...@.-.-.-.-.@... . ...X.X.3.X.>.;.&.;.;.;.;.#.#.$.$.@.*.*.@.;.;.X.#.;.&.;.&.;.;.;.$.@.*.;.@.@.;.@.#.@.@.#.#.@.@.",
"%.+.@.+.+.#.@.#.@.@.-.-.-.-.X.*. . .X.X.3.8.@.@.X.#.#.#.;.#.#.#.O.$.+.+.@.$.;.@.#.#.;.#.X.#.;.#.*.*.;.;.*.;.;.@.@.@.@.#.@.@.+.@.",
"+.+.+.%.%.+.@.@...@.#.-.-.#.@.*.#.#.#.%.8.#.#.#.#.#.@.@.#.#.#.#.$.$.$.$.%.+.@.@.#.+.#.#.#.#.#.#.;.@.@.*.$.;.;.@.@.@.#.@.@.#.%.@.",
"+.%.%.@.+.%.#.@.@.@.-.-.-.-.*.@.#.+.%.%.#.#.#.+.@.#.@.@.@.#.+.#.O.$.$.+.+.$.@.@.#.#.X.#.#.#.#.X.;.*.;.;.@.*.@.;.#.@.@.@.@.@.%.+.",
"%.+.%.+.@.+.%.@.@.@.@.-.%.#.#.#. .+.%.%.%.#.+.+.@.+.#.+.+.#.+.+.+.+.#.#.+.#.#.#.#.#.#.#.#.#.@.@.@.*.@.*.;.@.@.@.@.@.@.@.#.@.#.+.",
"+.%.+.%.%.+.+.%.@.@.#.@.#.#.@.@.#.+.+.+.+.+.+.+.@.+.+.#.#.+.#.#.#.#.#.#.#.#.#.#.;.#.#.;.X.>.>.*.*.;.*.*.;.;.;.@.#.@.#.#.@.@.+.%.",
"+.@.%.+.+.%.#.+.#.@.@.@.@.@.@.@.#. . .#.+.+.@. .#.+.%.+.#.+.#.#.#.#.#.#.#.3.#.#.;.#.;.;.3.3.;.*.@.;.$.;.;.@.-.@.@.@.@.@.@.@.%.+.",
"%.%.+.%.%.+.#.#.+.@.@.@.@.@.@.@.%.%.%.#.#.%.@.@.#.#.#.%.#.#.+.#.#.#.#.#.#.3.X.#.#.#.;.;.;.;.;.;.;.;.;.@.;.;.@.@.#.@.@.#.@.#.+.%."
};
