/* XPM */
static char *_23d7544d3624f52e4062fa857ba30b56dgJEBMmCghQtlpB[] = {
/* columns rows colors chars-per-pixel */
"64 64 186 2 ",
"   c #000313",
".  c #00031A",
"X  c #060C1E",
"o  c #090E1E",
"O  c #0C101D",
"+  c #060D25",
"@  c #0A0D22",
"#  c #0D1324",
"$  c #0E142A",
"%  c #0F1829",
"&  c #121526",
"*  c #121926",
"=  c #11162A",
"-  c #151A2C",
";  c #1A1D2D",
":  c #161C32",
">  c #191E32",
",  c #1B1F39",
"<  c #1C212E",
"1  c #172031",
"2  c #1C2234",
"3  c #1D233A",
"4  c #22222E",
"5  c #212536",
"6  c #242936",
"7  c #2A2A36",
"8  c #22263A",
"9  c #242A3B",
"0  c #292D3C",
"q  c #2D313D",
"w  c #33333F",
"e  c #252B42",
"r  c #2A2E42",
"t  c #282E48",
"y  c #2D3243",
"u  c #2D3449",
"i  c #323445",
"p  c #343945",
"a  c #393A46",
"s  c #33344A",
"d  c #35394B",
"f  c #3A3C4C",
"g  c #353C50",
"h  c #3C3E53",
"j  c #3D414E",
"k  c #3C4153",
"l  c #3D435A",
"z  c #41434F",
"x  c #414455",
"c  c #474B57",
"v  c #434459",
"b  c #44495C",
"n  c #4A4C5C",
"m  c #454C61",
"M  c #4C4E63",
"N  c #4C5264",
"B  c #535465",
"V  c #545965",
"C  c #585A67",
"Z  c #54566A",
"A  c #555B6C",
"S  c #5B5D6C",
"D  c #5D5E72",
"F  c #535B72",
"G  c #5D616E",
"H  c #5D6273",
"J  c #5C6479",
"K  c #61636F",
"L  c #626475",
"P  c #646874",
"I  c #63667B",
"U  c #636A7B",
"Y  c #6B6D7D",
"T  c #6B6B77",
"R  c #71717D",
"E  c #656D80",
"W  c #6A6D81",
"Q  c #6D7082",
"!  c #727483",
"~  c #757A87",
"^  c #74768B",
"/  c #757A8A",
"(  c #7A7C8C",
")  c #767B91",
"_  c #7C7E92",
"`  c #7B828A",
"'  c #7C8293",
"]  c #7E8298",
"[  c #828495",
"{  c #858897",
"}  c #818498",
"|  c #858A9C",
" . c #8A8E9B",
".. c #8B919E",
"X. c #828AA2",
"o. c #8C8EA3",
"O. c #8B91A4",
"+. c #8F96AA",
"@. c #9294A4",
"#. c #9598A5",
"$. c #949AAB",
"%. c #9A9DAB",
"&. c #989BA4",
"*. c #949AB0",
"=. c #9D9EB2",
"-. c #9EA1AE",
";. c #9EA2B3",
":. c #9FA4B8",
">. c #A2A4B4",
",. c #A8A7B7",
"<. c #A2A9B3",
"1. c #A5A6BB",
"2. c #A4A9BC",
"3. c #AAADBC",
"4. c #B2B4BE",
"5. c #B8B9BE",
"6. c #A6ADC1",
"7. c #ACAFC2",
"8. c #ADB3C4",
"9. c #AFB5CB",
"0. c #B2B4C4",
"q. c #B5B9C6",
"w. c #BABBC6",
"e. c #B2B5C8",
"r. c #B4BBCB",
"t. c #BBBDCB",
"y. c #B6BDD2",
"u. c #BCBED3",
"i. c #BDC1CD",
"p. c #BDC4D3",
"a. c #BEC5D8",
"s. c #C1C4CD",
"d. c #C5C9CE",
"f. c #CACBCE",
"g. c #C3C5D3",
"h. c #C5CAD4",
"j. c #CBCDD4",
"k. c #C4C6DA",
"l. c #C8C7D9",
"z. c #C5CBDB",
"x. c #CBCDDA",
"c. c #D1CFDB",
"v. c #CED1D6",
"b. c #C7D0D9",
"n. c #CED1DB",
"m. c #D0D1D6",
"M. c #D2D2DE",
"N. c #D1D1DD",
"B. c #D4D4DE",
"V. c #D5D5DD",
"C. c #D0D1DA",
"Z. c #D4D8DE",
"A. c #D8D9DE",
"S. c #C6CDE1",
"D. c #C6CDE1",
"F. c #CACEE1",
"G. c #D1CEE1",
"H. c #CED1E1",
"J. c #CDD2E2",
"K. c #CFD5E8",
"L. c #D1D3E1",
"P. c #D1D5E2",
"I. c #D5D5E1",
"U. c #D6D6E2",
"Y. c #D3D6E5",
"T. c #D3D5E2",
"R. c #D8D7E5",
"E. c #D4D9E5",
"W. c #D9DBE4",
"Q. c #D4D6EA",
"!. c #D5DAEB",
"~. c #DADFED",
"^. c #DADDEA",
"/. c #DBDEF1",
"(. c #DBE0E6",
"). c #DCE2ED",
"_. c #DFE8EF",
"`. c #DFE1F1",
"'. c #E0E1EB",
"]. c #E3E8EC",
"[. c #E2E3F3",
"{. c #E8E5F6",
"}. c #E8E8F2",
"|. c #E2E7FB",
" X c #E6EAF9",
".X c #E8ECF8",
/* pixels */
"m.m.v.m.m.m.m.v.m.m.m.m.m.m.v.C.f.x.m.m.V.m.c.C.j.x.C.V.N.M.U.V.f.f.m.m.m.m.m.m.v.m.c.x.C.N.c.N.c.m.m.m.m.m.m.m.m.m.m.m.m.m.m.m.",
"m.m.m.m.m.m.m.m.m.m.m.m.m.m.m.m.m.m.m.m.m.m.m.C.C.C.c.j.l.j.x.c.A.V.m.m.m.A.m.m.c.C.c.C.c.C.v.c.v.m.m.m.m.m.v.m.m.m.m.m.m.v.m.m.",
"m.m.m.m.m.m.m.m.m.m.m.m.m.v.m.m.m.C.C.C.C.m.c.C.j.m.M.U.I.c.c.x.j.f.j.j.m.C.A.A.v.c.c.C.C.C.c.C.C.m.m.v.m.m.m.m.m.v.m.m.m.m.m.m.",
"v.m.m.m.m.m.m.m.m.m.v.m.m.m.m.m.C.C.C.C.m.c.C.C.j.x.M.I.U.G.c.x.C.V.V.m.m.C.m.j.c.C.C.N.C.c.v.c.c.m.m.m.m.m.m.m.m.m.m.m.m.v.m.m.",
"C.C.m.c.m.x.m.m.c.m.x.m.C.m.C.m.n.v.x.n.N.n.L.n.c.G.x.l.h.l.x.x.x.x.n.v.C.N.n.n.n.n.v.n.C.n.v.n.v.m.c.m.c.x.m.c.x.c.c.v.C.C.v.C.",
"c.m.m.c.m.m.x.c.m.c.m.m.m.C.c.v.n.v.x.N.n.N.x.b.x.x.c.F.L.P.L.N.L.L.L.N.N.N.N.L.n.n.n.n.n.n.n.v.m.c.m.v.m.m.m.x.m.m.m.c.C.m.c.m.",
"m.m.C.m.c.c.m.m.m.c.m.c.C.c.m.c.n.n.n.n.P.n.h.h.L.x.x.x.x.x.z.k.k.l.L.Y.Y.P.x.z.n.n.H.n.n.n.n.n.c.v.m.c.m.m.c.c.m.m.m.m.m.m.m.m.",
"x.m.m.c.m.m.c.m.m.m.v.c.m.v.c.v.J.n.J.J.H.x.h.p.Y H b i y i h l H ^ +.8.l.P.Y.Y.H.J.b.n.v.v.n.b.v.c.c.m.c.m.m.m.m.c.c.m.c.m.x.c.",
"c.v.c.v.C.C.x.N.w.}.j.c.c.j.d.M.p.).a.a.-.j % 1 = = - > 2 : : : X 2 2 : 1 3 b ` ;.b.b.b.n.b._.d.s.W.j.j.M.C.M.f.c.C.c.v.c.v.c.C.",
"C.c.C.c.c.C.C.c.U.c.f.M.x.c.c.c.).b...y X 2 q 1 2 > - : : : $ : > 2 = = 2 1 1 2 u < k  .a.E.i.b.N.c.j.c.c.c.c.j.C.c.C.C.C.c.v.c.",
"c.v.c.C.C.c.c.v.^.d.j.c.C.c.N.N.a.H u 1 1 2 % - > 9 g m m l l m e e 3 > 1 % + % o 2 % 2 1 k p.b.W.j.c.C.x.m.x.m.C.C.C.c.c.C.c.C.",
"C.c.v.c.C.C.C.C.x.V.c.f.W.c.M.s.U - % 1 # 2 J a.D.6.+.*.9.D.S.S.J.D.a.8.*.E k 3 6 3 # % 3 1 1 J w.M.c.j.m.j.c.c.x.C.c.m.C.c.v.c.",
"c.N.c.n.n.c.N.G.h.U.c.j.M.M.U.( + 9 1 1 E S.y.E l m l g u m ] y.z.J.!.K.D.a.a.S.2.J l 1 % 3 3 e ! M.c.g.M.c.U.x.c.N.N.N.n.c.n.c.",
"n.c.N.c.c.N.c.n.U.l.c.M.g.M.t.0 3 + u *.S.+.m k e : $ $ : , e t 6.r.S.!.K.S.S.D.6.6.a.z.J + : $ a 0.c.f.M.c.N.x.N.c.N.x.c.N.c.N.",
"N.N.N.x.n.c.c.c.U.j.N.x.c.x.R O % , ] p.] N , t : 1 , , , : : : $ J p.p.E 3 1 : 3 t 3 . F ] e $ 4 R x.I.c.I.j.I.x.N.N.N.N.c.n.c.",
"c.c.N.N.c.c.c.c.h.I.U.t.'.d.4 4 % l 9.6.m u : $ 3 3 t u u e , > : % 1 1 % 1 1 % % + 1 3 $ 1 t 3 - a h.~.h.Y.t.R.c.N.G.n.c.v.c.N.",
"m.m.m.m.m.c.c.c.h.U.g.E.z.H 1 * - e.8.F e e : : q ~ i.Z.n.i.Q 1 # 1 1 * * O < <   w & - = ; & - O z x.j.x.l.x.Y.g.~.N.x.x.A.f.M.",
"m.m.m.m.m.c.x.c.x.Y.z.~.a.l % 2 p p.' u 3 : $ Z q.h.b.d.d.b.s.2.9 2 2 1 < 6 V ` w. .[ a = ; 8 & 5 o n.^.x./.h.x.!.x.g.Y.j.A.V.j.",
"m.m.m.m.c.m.m.x.b.Y.z.E.;.3 # < ' a.A 3 , 2 h :.n.n.n.Z.Z.C.v.z.a.| H ` 4.Z.b.a.v.Y.G.l.I & - ; O p 8.r.x.!.g.g.l.G.g.I.j.m.A.m.",
"m.m.m.m.m.c.v.C.v.J.z.z.U 2 % % a.$.k 9 $ t O.S.b.j.b.Z.Z.b.x.x.K.a.a.b.K.b.n.!.h.n.c.l.R.B 8 - # 2 3.x.^ r s f ^ T.L.g.c.m.c.c.",
"m.m.m.m.m.m.C.v.P.z.b.h.u 1 2 u K.H y 3 $ m u.D.E.n.v.d.h.x.Q.Q.E.K.K.Z.n.J.n.b.P.^.h.q.x.E.8 ; < < O.G - r 9 s h ,.G.x.R.c.c.c.",
"m.m.m.m.c.x.n.v.E.h.P.r.1 % 2 ' z.N 3 $ e ) D.x.h.v.v.v.c.x.c.F.a.Z.K.a.h.z.n.b.h.x..Xb.Q.x.S O < # y 2 r i @ , i I k./.G.x.U.j.",
"m.m.m.m.C.c.n.n.Z.b.K.` - - 2 r.p.n 1 1 s 7.J.K.n.n.v.C.N.c.G.Q.J.J.b.J.K.E.b.h.n.n.t.).x.x.-.; O - 9 5 5 Z I 8 i M k./.x.c.R.j.",
"m.m.m.m.c.C.v.n.h.K.n.k - 2 2 J.a.j - e t z.K.x.n.h.v.M.N.h.l.Q.J.b.K.K.S.h.J.~.J.P.^.g.n.^.s.0 < & 8 r } k.I 8 8 D Q.F.l.c.x.U.",
"m.m.m.m.c.m.j.m.x.h.E.- % 1 H a.i.j % - m a.J.b.i.].v.v.G.x.[.u.' l 9 2 2 p J i.l.E.z.E.i.^.j.c ; 8 u O.Q.u.Z , r o.D.G.G.G.I.c.",
"m.m.m.m.m.c.c.x.M.h.p.< 1 - O.z.9.2 2 - J !.a.E.(.d.i.(.G.G.6.M 1 # 1 - * 9 < 1 Q 4.W.P.v.M.i. .G v 2.k.G.e.s 9 s 1.G.G.G.G.c.c.",
"m.m.m.m.m.m.m.j.J.j...< 1 % a.S.p.9 - % ~ K.b.Z.Z.v.d.Z.R.e.v @ 1 * 1 6 % # 2 # ; L k.v.n.j.h.s.-.t.F.!./.W r y M u./.l.R.M.x.M.",
"m.m.m.m.c.c.c.c.b.P.N - - 3 !.z.K.y 1 - U K.Z.b.i.Z.Z.b.R.^ = : 3 2 H | | V % 2 & 5 { E.x.h.W.v.b.).F.k.u.M 2 i _ l.R.l.I.c.c.M.",
"m.m.m.m.m.c.c.c.h.^.2 * - b K.b.b.u q 1 l J.a.b.Z.d.v.Z.p.N , : $ D.!.a.K.K.6.: 5 & x M.Z.v.Z.v.P.h.b.!.^ q y r e.x.L.U.x.j.I.c.",
"m.f.m.m.c.m.m.c.z.j.O ; - ' S.J.p.` % 2 q ' E.Z.Z.v.v.v.d.N , : 2 J.a.D.K.p.!._ & - ; w.W.v.d.Z.h.P.J.e.v - a L G.x.x.E.j.f.V.j.",
"m.m.m.m.m.m.c.m.n.-.# < 1 8.J.J.a.p.u 2 2 9 <.b.d.(.v.v.P.] > , $ b y.J.!.|.y.a.p i x w.M.v.i.Z.n.b.n.V 5 a i p.L.Y.l.N.c.c.V.m.",
"m.m.m.m.m.m.c.c.H./ - 1 1 z.K.S.E.a.' 1 6 % j i.Z.i.f.(.b.h.h $ 1 # k 6.D.k./.D.| H ..E.h.Z.n.v.v.P.#.u 7 i [ n.k.^.j.j.V.m.c.m.",
"v.v.v.v.v.n.n.n.a.l 1 3 9 S.i.E.i.(.n.H 6 - 1 j r.~.h.E.h.v.s.6 # # # 1 Y a.S.J.e. Xi.n.P.v.Z.j.4.E.q q 6 G i.^.N.n.C.v.c.v.c.c.",
"v.v.v.v.v.v.b.S.K.3 3 $ e p.!.E._.E.p.S.A 2 > & n z.n.n.Z.d.A.<.d 3 2 6 1 k a.S.Q.k.E.v.v.j.M.v.E.P j a a 3.v.l.N.N.c.C.c.C.c.c.",
"v.v.v.v.v.v.n.n.D.3 % $ l N V -.a.a.b.K.a.j > 9 1 -.n.h.b.h.f.E.h.H X 3 - X 9 ;.H.k.^.x.N.x.C.M.z.c q a  .n.U.g.c.N.C.c.m.c.c.c.",
"v.v.v.v.v.v.n.n.9.: + 3 3 j < j T a.J.p.).r.y & - j t.b.s.W.j.M.n.z.:.2 - $ - e _ ^.n.l.n.E.v.v.4.S < p k.n.N.U.N.x.C.C.c.c.c.m.",
"v.v.v.v.v.v.n.H.:.3 $ t m p 1 O < 6 U 8.Q.K.Q u > - #.^.h.R.I.E.p.K.b.b.x - 1 # y ,.x.L.x.Y.v.x.h.f a p #.v.h.Y.c.N.m.c.C.v.c.c.",
"v.v.v.v.v.v.n.b.O.3 + t :.H p 1 6 % 6 1 u B ] 8 - 0 Q x.T.g.T.l.b.n.b.a.J.G - $ - v k.T.F.x.x.L.E.c p 7 S z.h.n.n.C.c.C.C.c.m.c.",
"n.b.v.v.v.v.n.n.} 3 : m S.K.i.n 6 2 O y - 8 8 @ # 0 Q i.R.I.G.c.d._.b.p. Xp.q y - & $.F.U.l.l.P.b.$.6 6 j i.j.n.c.N.C.C.c.c.c.c.",
"v.Z.v.v.v.v.n.F.L Z l ) K.b.n.b.p.G j 1 5 ; & 8 5 r 0.Q.l.`.l.G.Z.i.(.E.r.).z.- & 8 L h.^.P.j.L.Q.t.i p 7 i.n.E.n.c.x.c.m.c.m.c.",
"n.n.m.m.m.v.n.n.W s h o.G.D.^.d.a.E.a.-.Y j u p n w.F.l.G.T.w.G.i._.p.Z.a.K.Z.9   9 d h.H.L.x.N.p.).p q p  .h.N.c.N.c.v.c.v.c.c.",
"M.n.x.c.v.v.C.F.W v h ] Q.u.E.b.b.J.J.Z.Z.b.b.b.R.l.G.~.l.Q s i p.p.a.(.a.!.p.9 3 < N h.Y.n.x.Y.n.x.c 7 0 / j.P.n.c.N.c.C.c.c.c.",
"M.N.v.m.m.C.C.n.] M h W Q.l.x.n.a.a.a.b.J.n.n.b.c.l.R.c.3.M 4 ; 6 ..a.p.J.i.m % 2 & | l.P.x.n.P.Q.p.G q 6 P x.N.c.n.c.v.C.c.c.c.",
"N.C.N.C.c.c.n.n.=.m h B k.T.j.v.(.Z.(.Z.n.x.j.v.c.c.c.B.l.Z @ 7 < * 6 p j 0 # 1 o h p.v.x.U.Y.j.x.h.P q 7 P n.v.N.c.N.c.c.c.m.c.",
"c.c.c.m.m.v.c.c.u.v v v ;.).v.b.i.d.b.v.v.v.v.M.A.'.f.c.R.,.f & < * % 1 O % 1 % i | ^.n.x.E.E.h.l.!.C q q ~ n.x.n.c.v.c.m.C.c.c.",
"c.c.c.c.C.c.N.F.Q.D v s Q h.v.v.Z.v.v.v.v.n.v.d.5.V.c.m.s.{.t.! O 6 1 % 1 % 9 e @.L.M.b.M.v.v.v.v.H.x 6 w @.M.b.c.N.c.m.C.x.c.m.",
"G.c.c.c.C.c.N.c.G.=.B f n ..d.n.Z.b.d.f.v.Z.v.d.m.m.W.'.l.l.R.G.J.H 2 y 6 j ] p.L.Q.v.z.M.j.v.C.n.%.p 7 j q.M.x.N.N.C.c.m.c.c.c.",
"c.c.c.m.c.N.c.c.x.Q.F k p C 4.n.v.v.v.v.v.v.Z.m.m.A.m.w.R.R.x.j.a._.Z.a.J.E.a.).L.k.P.j.n.v.W.v.x.G q q n N.M.l.N.x.c.C.c.c.c.m.",
"C.v.C.v.C.C.v.n.t.{.8.B a i B &.f.f.x.V.C.v.v.v.j.j.f.f.x.x.m.C.v.v.v.v.v.n.n.M.s.v.b.M.E.v.s.v.K z 4 z  .V.W.l.c.c.c.n.c.n.c.N.",
"v.v.v.v.x.v.n.n.U.H.l.;.Z 0 f C &.s.U.j.s.m.V.g.C.C.C.n.v.v.m.v.v.v.v.C.Z.n.v.v.(.n.n.x.h.(.h.( z 0 w K g.I.c.c.c.c.C.N.N.c.n.c.",
"v.v.v.m.v.n.v.n.g.j.n.l.=.S i a a K >.I.(.N.x.E.h.j.v.b.N.L.G.G.b.v.b.v.v.n.G.x.i.Z.x.b.P.@.c p 7 7 S t.s.W.I.l.c.c.N.c.c.N.c.L.",
"v.v.v.v.v.C.n.n.j.Y.Y.x.x.%.S s f f z D @.h.x.h.L.P.Y.Y.G.x.x.l.E.E.E.E.K.n.x.l.P.J.l.$.C f s 7 a C w.m.c.g.{.f.M.c.c.N.N.N.x.c.",
"v.m.v.v.x.m.n.n.^.s.N.R.g.x.q.Y v h s f h M ^ =.u.k.l.l.l.F.G.G.z.k.k.k.D.l.k.u.[ S h r 7 i h f T s.c.c.f.R.s.W.N.c.C.c.c.c.v.c.",
"v.v.v.v.C.v.n.N.N.i.h.L.x.R.^.h.@.D v v x r r v b M Z L W ^ _ _ | ] ^ E Z v h s u d s f v y b %.s.W.'.s.'.f.j.V.c.v.c.v.C.C.c.C.",
"v.v.v.v.v.n.v.v.U.R.x.x.R.x.g.R.`.F.=.L v v v a s i s s s f h h g s s t s s y i f r s x Z %.Q.n.'.c.f.'.g.V.M.c.v.c.N.c.C.c.v.c.",
"v.v.v.m.v.v.n.v.v.h.c.U.x.L.R.h.G.F.G.c.u.=.Y v h h f f s s i i s s s s s h h x M ( >.t.Y.L.x.x.c.f.c.c.c.c.V.M.c.C.c.v.c.v.c.N.",
"v.v.v.m.v.n.v.v.v.v.v.n.n.v.n.n.F.N.n.F.N.n.L.x.q.3.&.[ ! L S S Z D T _ @.,.w.s.c.n.c.C.c.v.m.m.m.x.c.m.m.c.c.m.v.c.c.m.m.m.c.x.",
"v.v.v.m.C.v.n.v.n.v.n.n.n.N.n.n.n.v.N.v.n.n.n.v.Z.M.v.v.j.j.v.v.R.R.G.c.c.B.B.G.c.m.C.m.m.m.m.m.m.c.m.m.m.m.v.c.m.C.m.c.c.m.m.m.",
"v.C.v.x.v.v.C.v.v.n.v.C.v.v.v.n.C.v.v.v.v.v.v.v.j.j.f.v.j.v.v.f.c.m.c.j.f.f.c.j.v.m.m.m.m.m.m.m.m.m.m.c.c.x.C.v.c.c.m.m.c.m.m.c.",
"v.v.v.v.v.v.v.m.n.v.v.n.n.v.c.v.v.v.v.v.m.v.v.v.f.v.v.v.Z.v.Z.m.m.m.m.m.V.V.m.V.m.m.m.m.m.m.m.v.m.c.m.c.m.m.m.C.v.m.m.x.m.m.c.m.",
"v.v.n.v.v.v.v.x.v.v.v.v.v.v.x.m.v.v.C.v.v.v.v.v.j.d.v.v.f.v.j.v.m.m.m.m.m.m.f.j.m.m.C.v.m.C.C.x.m.m.m.m.m.m.m.m.m.m.v.m.m.m.m.m.",
"v.v.v.c.C.v.v.v.v.v.m.v.v.v.v.m.v.v.v.v.v.C.n.v.Z.Z.n.v.x.x.j.f.m.m.m.c.m.V.V.V.c.N.C.c.c.C.C.c.m.m.m.m.v.m.m.m.m.m.m.m.v.m.m.m.",
"v.n.n.v.v.v.v.v.v.v.v.v.m.v.v.v.n.n.N.v.n.n.n.n.j.j.v.b.c.N.B.c.V.V.c.c.m.j.f.c.c.c.c.c.c.c.c.c.C.m.v.m.m.m.m.C.m.m.m.m.m.m.m.m.",
"n.v.n.v.v.v.v.m.v.v.v.v.v.v.v.v.n.N.x.L.x.n.n.n.n.M.P.M.c.c.c.f.m.m.m.m.c.c.c.c.c.c.G.c.c.G.G.c.C.m.m.m.m.m.m.v.m.m.m.m.m.m.v.m."
};
