/* XPM */
static char *_a5adc0d62b44b648c8961544cb19b01iRn1iyzzUG0sxZDF[] = {
/* columns rows colors chars-per-pixel */
"64 64 242 2 ",
"   c #BE914C",
".  c #BF8F51",
"X  c #BD8E66",
"o  c #AF9062",
"O  c #BA9569",
"+  c #BC9874",
"@  c #D9884C",
"#  c #C28C53",
"$  c #C98C5C",
"%  c #DD8E56",
"&  c #D38A5A",
"*  c #C49459",
"=  c #C89759",
"-  c #D3955C",
";  c #D79559",
":  c #E2965A",
">  c #DDA05D",
",  c #C48D61",
"<  c #CC8E62",
"1  c #CC8D6B",
"2  c #C58B6A",
"3  c #D38C61",
"4  c #D18B6D",
"5  c #DC8E6D",
"6  c #D88A69",
"7  c #C59364",
"8  c #CB9365",
"9  c #C79B66",
"0  c #CC9B61",
"q  c #C4936B",
"w  c #CB946C",
"e  c #C59B6C",
"r  c #CB9C6C",
"t  c #D39464",
"y  c #DB9564",
"u  c #D39B64",
"i  c #DB9D66",
"p  c #D3956C",
"a  c #DB956A",
"s  c #D39B6C",
"d  c #D99B6C",
"f  c #CB8D71",
"g  c #D58D75",
"h  c #C59573",
"j  c #CA9573",
"k  c #C49A73",
"l  c #CC9B73",
"z  c #CD9C7B",
"x  c #C8977C",
"c  c #D39473",
"v  c #DA9473",
"b  c #D29B74",
"n  c #DB9C73",
"m  c #D29D7B",
"M  c #DC9D7C",
"N  c #D8967C",
"B  c #E48E66",
"V  c #E28F6B",
"C  c #E4956C",
"Z  c #E0996F",
"A  c #F09B62",
"S  c #E69673",
"D  c #E19D71",
"F  c #CCA36D",
"G  c #CEAA6E",
"H  c #D2A16E",
"J  c #DBA16B",
"K  c #D6A86B",
"L  c #C9A473",
"P  c #CCA17D",
"I  c #CAA679",
"U  c #D4A374",
"Y  c #DCA073",
"T  c #D3A47B",
"R  c #DAA57B",
"E  c #D4A97E",
"W  c #DCA97D",
"Q  c #D2B17E",
"!  c #E2A064",
"~  c #E0A479",
"^  c #E4A777",
"/  c #F7B178",
"(  c #BE9A80",
")  c #CC9A82",
"_  c #C39D88",
"`  c #E59D83",
"'  c #C3A48B",
"]  c #CBA58A",
"[  c #D3A584",
"{  c #DBA384",
"}  c #D4AB83",
"|  c #DAAB85",
" . c #D4AC8D",
".. c #DCAD8A",
"X. c #DBA78D",
"o. c #D4B589",
"O. c #D9B58A",
"+. c #DFAD92",
"@. c #CDB29D",
"#. c #DAB594",
"$. c #DBB79A",
"%. c #CBAF97",
"&. c #E5A986",
"*. c #E1BA8E",
"=. c #E7B588",
"-. c #F5B889",
";. c #E4BA95",
":. c #E4BD9C",
">. c #EDBF9D",
",. c #E7B798",
"<. c #F3BC9D",
"1. c #F0BC94",
"2. c #E6AD92",
"3. c #D5BAA5",
"4. c #E7BDA3",
"5. c #EABEA3",
"6. c #FDBBA5",
"7. c #DAC199",
"8. c #FCC08A",
"9. c #ECC29B",
"0. c #EAC598",
"q. c #F2C29C",
"w. c #FECB9E",
"e. c #F8C598",
"r. c #FFD799",
"t. c #DCC5AA",
"y. c #DFC4B1",
"u. c #E5C2A3",
"i. c #EDC2A3",
"p. c #E6C9A1",
"a. c #ECC6AA",
"s. c #EDCAAC",
"d. c #E9C7A7",
"f. c #F1CDAC",
"g. c #FCCCAB",
"h. c #F8C8A6",
"j. c #EBD1A9",
"k. c #E6D5A9",
"l. c #FED3A4",
"z. c #FDD4AB",
"x. c #F8D8AA",
"c. c #EACAB4",
"v. c #F6CAB2",
"b. c #EFD2BC",
"n. c #E2D7B8",
"m. c #F5D6B6",
"M. c #F6D8B1",
"N. c #FDDCB4",
"B. c #F3D4BA",
"V. c #FED5BC",
"C. c #F7D9BC",
"Z. c #FEDCBC",
"A. c #FDD7B2",
"S. c #FFE2AD",
"D. c #FFE2B4",
"F. c #FEE3BC",
"G. c #FEEABE",
"H. c #EED9C4",
"J. c #FED5C2",
"K. c #FDDDC3",
"L. c #FEDCCB",
"P. c #F4D7C0",
"I. c #F0DDD3",
"U. c #FEE3C4",
"Y. c #FFEAC4",
"T. c #FFE5CB",
"R. c #FFEACC",
"E. c #F6E9CE",
"W. c #FFF3C7",
"Q. c #FEF2CD",
"!. c #EEE5D7",
"~. c #E5ECDC",
"^. c #ECEAD8",
"/. c #F6E7D6",
"(. c #FEE5D3",
"). c #FFECD3",
"_. c #F4ECDB",
"`. c #FEECDB",
"'. c #FAEAD9",
"]. c #EEF5DF",
"[. c #E8FBDA",
"{. c #FEF2D3",
"}. c #FCF9D4",
"|. c #F4F4DD",
" X c #FEF3DC",
".X c #F4FBDE",
"XX c #FEFADC",
"oX c #F4F5D2",
"OX c #E8E0CB",
"+X c #EEECEB",
"@X c #EEEDE2",
"#X c #F4ECE2",
"$X c #FDEDE3",
"%X c #FFE7EB",
"&X c #F1EFEB",
"*X c #FEEDEB",
"=X c #FFE3E7",
"-X c #EDF5EC",
";X c #E4FFEB",
":X c #EDFEEC",
">X c #EBF5E8",
",X c #F5F3E4",
"<X c #FEF4E4",
"1X c #F5FBE5",
"2X c #FCFAE4",
"3X c #F4F4EC",
"4X c #FDF6EC",
"5X c #F5FAEC",
"6X c #FBFAEC",
"7X c #F4EDF3",
"8X c #FEEDF3",
"9X c #FFEEF9",
"0X c #EDF5F4",
"qX c #ECFBF1",
"wX c #EFF9F8",
"eX c #F5F5F4",
"rX c #F9F6F6",
"tX c #FDF4F5",
"yX c #FEF4F6",
"uX c #FBF6F2",
"iX c #F2FAF3",
"pX c #F7F8F0",
"aX c #F6F9F0",
"sX c #F7F8F2",
"dX c #F7F8F3",
"fX c #F4FAF2",
"gX c #F0FAF6",
"hX c #F6F8F5",
"jX c #F4F8F7",
"kX c #F5F9F2",
"lX c #F8F8F0",
"zX c #FFFEF1",
"xX c #FCFAF2",
"cX c #F6F6F9",
"vX c #F6F6FC",
"bX c #FAF5F9",
"nX c #F8F6FA",
"mX c #FDF3FA",
"MX c #F2F9F9",
"NX c #F4F8FA",
"BX c #F5FBFB",
"VX c #FCFCFB",
/* pixels */
"dXdXdXdXuX6XuX6XuX4X4XuXuXuXuX6XsX5X5X5XtX5XsXsXtXsX5XsX5XsX5X:X5X:X5X5X:X1X3X6X4X4X4XuXuXlXlXdX5X5X5X:X1X5X6X5XyXlXyXyXmXmX9XmX",
"dXdXsXlXlX4X4X6XlX4X4XuX4XuXrXlXeX5X5XeX5XsXsXsXsXsXtX5XsXsX3X5X:X1X1X5X1X2X6X4X4X4X4XlXuXuXrXlX5X5X5X5X5X6XdX6XuXuXuXuXyXyXmXmX",
"lXlXlX6XlXuXlXuXuXlX4XlXlXrXlXlXsX5X5XtXtXsXtXtXsXtXeXtX4XlX6X6X5X5XlX6X4X4X4X4X4XuXuX4X4X4XuX6X6X6X2X4X4X4X4X4X4XuXuXuXlXyXyXyX",
"4XsX6XlXlX4XuXlX6XrXlXrXtXlXrXrXsXsXsXsXeXrXlXrXrXlXtXtXuXlXtX4XlXrXuXuXyXuXuX4XuX*X4X4X4XuX4X4X4X4X4X4X4X4X4X4X4X4X4XuXuXlXlXsX",
"6X6X4X6XlXlXrXlXlXhXdXrXeXrXdXrXeXlXlXsXhXbXrXbXmXrXyXyXuX4X8XuXyXyXmXmXyXyX8XuX8X4XuX4X4X4X4X4X4X4X*X4X4XuX4XuX4X6X4XtX4X6X5X4X",
"4X4X4X6X6XlXlXdXdXhXrXdXrXeXrXlXsXeXtXsXdXhXbXbXmXmXyXyXyXuXuXuX8XyXyX8XyXyX8XyXuXuXuXuXuX6X4XuX4X4X4X4X4XuX4XlX4X4X5X6X6X5X5X5X",
"4X4X4X6X4XsXeXhXhXhXeXdXlXuXlXlXtX6XlXrXrXNXNXvXcXcXrXrXuX8X4X*XyXuXyXyXyXyXmXyXyXyXyXrXyXlXlXlX4X4XuXlXuXlXlXrXeXsX6X5X6X3X4X5X",
"<X4X<X4XlXsXeXeXNXhXrXrXuXuX4X4X6X6X6XlXhXhXMXBXcXcXeXrXuXuXuXuX4X4X4X8XuXuXyXyXbXrXbXrXrXbXrXrXlXtXrXsXrXrXrXeXeXeXrXlXlXtX4X4X",
"<X4X4X6X5XdXeXMX3X7X3X3X4X4X<X<X!.2XzX5X5XdXBXBXwXMXjXhXlXrX4X4X4X<X6X6X4XtXsXmX7XeXcXvXvXcXcXeX-XgXBXVXBXwXwXBXNXcXeXrXrXlXuXuX",
"4X4X6X6XlXdXhXhXVXdXxX4X<X$X`.`.6X X_.6XxX3X-XBXwXwXjXjXsXlX6X4X<X2X2X3X6X6XsXeXVXVXvXcXeXmXcXeXxXaXqXjXBXBXwX0XBXMXcXbXrXyXyXyX",
"4X4X4XlXrXhXNXhX3X3X4X4X<X(.T.K.).{.{.`.2X6XaX0XgXqXjXiXsXsX6X3X2X.X1X2X6X5XsXlX&X7XeXmXVXyXxXxX5X>X>X1XgXBXjX0XvXNXNXcXbXmXyX8X",
"4X4XlXlXhXMXhXhXhXxX4X XK.4.#. .:.m.T.). X4XzX1XaXgXiXiXsX5X6X2X2X1X1X1X3X5XsXlXxXuXuXuX4X*X$X$X2X6X6X6X6X5XdXVXNXNXcXcXbXyXyXyX",
"4X6XeXeXeXMXhXhXlX4X<X).s.P q q l T 4.U.<X X2XzXaXdXgX5X6X6X6X6X5X1X3X6X5X6X4XuXxXuX<X$X`.`. X XK.U.).).<X3XxXVXrXeXbXeXrXlXrXyX",
"6X6XdXhXMXMXMXeX&X$X XK.$.l r Y < 1 m 5.T. X<X_.5X6XdX6X6X4X4X4X6X6XsXsXlXlXuX4X$X$X<X`.).T.U.Z.R.Y.U.T.).`.$X<X6XlXsXsXdXdXlXlX",
"dXdXdXjXMXMXhXdXxX4X XV.| $ u -.D Z p z 5.).<X/.4X4X6X6X4X4X4X4XtXeXrXlXyXuXuX4X4X<X).U.f.#.E L w w h [ 4.K.`.4X4X4X6XsXsXsX5XiX",
"5XdXeXNXjXjXiXdX$X X).f.T 8 ^ l.e.R 2 w ..i.T.XX X<X<X<X<X2X<X<X6XsX6XtXuX4X*X<X(.K.i...T 8 7 8 7 w c b | 9.K. X<X4XlXeX5X6X5X5X",
"qXqXmXmXeXaX1X2X_.4XR.9.r p U G.G.k.o.+ q W h.F.U.Y.R.Q.Q.{.{. X.X1X1XoX X X(.T.h.~ 3 3 y ; & $ k o.q 1 t R A.{.2X4XrXrXyXuX4X4X",
":XgXmX9XeX5X1X2X<X4XT.4.p t T G.}.Q.k.| 8 8 D -.l.l.x.M.M.A.A.V.Y.W.{.{.R.U.g.1.v S a y & s -.D.F.F.l.s t d ;.U.<X6XbXmXmXuX4X4X",
":XgXyXmXdX5X2X2X4X4XE.4.b p [ Y.{.R.V.<.` V C S c c j j j c c c r p p v M &.N c c 1 j | f.U.Q.{.Q.F.F.8 p U o.{.2X4XrXmXyXuX4X4X",
":XqXmX9XxXaX1X1X4XuX(.c.b l  .R.).`.(.K.6.` g 6 v c N c c c c v C B V C S v 4 2 f X.a.T. X6X6X,X{.G.U.8 p r } R.2X4XrXmXmXuX4X4X",
":X5X9X9XrX5X6X5X6XuX$XB.z h ] R. X2X<X`.L.v.4.` ) ) T z m b b v 6 B B 5 a p N | :.J.`.2X<X3XeXaXXXQ.N.s n q 0.{.<X6XrXmXmXuX4X4X",
"5XdX9X9XuX6X1X6X3XtX<XL.] k ' OX|.|.,X<X4X$X`.(.R.U.T.Y.U.U.F.Z.N.g.e.=.| | ,.v.(.).$X#X4XVXrX,X{.G.1.w b l U.XX2XlXrXmXyXuX6X4X",
":X1X9X9XrXlX6X5XrXtXuX`.,.X.@.H.6X5X:X:X5X5X6X3X.X.X}.}.}.{.Q.R.E.).(.{.Q.R.{.}.{. X2X4X2X3X4X<X{.F.| w 2 P T.{.3XdXrXyX8XuX6X6X",
"5X5XyX9XyX5X6X5XrX8XyX4Xc.4.y._.1X:XqXqXqXqXqX5X5X6X2X2X2X.X1X1XzX5X6X2X X}.XX}.XX.X.X2X2X2X2X2XY.0.T m h :. X2X5XdXyXyXyXyX4X5X",
":X1X9X9XyX6X5X6X+XtX$X$X(.K.`.<X|.5XaXBXwXwXBXhX@XzX<X6XzX,XdX:X0XNX&X2X X2XoXE.oX2X1X5X1X.X2X}.F.} X [ [ T.2X^.6XdXyXuXuXuX6X6X",
"1X1X9X9XrX5X3X5XeXyX4X<XT.J.T.$X$X<XxXaXeXNXBXlX#XuX<X<X4X4XjX0XvXBX3X4X X{.n.t.n.|.1X1X1X1X6X).k.E q j :.R.2X2X5X5XyX8X8X4X6X5X",
":X3X9X9XtX5X1X6XuXyXxX`.g.;.t.b.`.*XuXuXeXeXyX4X*X$X`.=X4XVXBXBXBXrX4X XR.F.o.' 3./.4X6X3X4XuX`.s.O.[ [ J.(.<X6XgXaXdXuXuX4XsX5X",
":X-X9X9XlX6X5X5X4X4X2XL.2.l ' t.`.%X4X4XeXrX4X$X`.a.v.J.`.xXeXVXMX-X4X).U.g.j + _ L.*X*X8XuXuX`.D.w.q.g.`.`.,XaXaXaXxXuX*XuX5XdX",
":X:X9X9XsX5X,X2X3X$X<XB.{ w ] c.$X*XuXlXeXlX2X{.f.z m | d.<X1X-X:X>X2XQ.F.1.w h x L.8X*X8X9X8X(.M.9.q.T.(.<X,X5XgXdXuX8XuXuX6X5X",
":X:X9X9XsX5X1X2X4X$X Xd.c p } Z.$X8XdXhXBX5XXXR.T < & $ T U.2X~.:XgX2X{.N.~ t j ) (.*X%XuXuX*X`.O.T | V.L.4X4XgXgXdXuX4X8X4X5XdX",
";X-X9X9XsX5X2X2XzX<X).#., d =.U.$XuXyXdX5X2XR.F.t % % % t ;.{. XqXBX<X).Z.s c w  .(.2X,X4X1X].}.Q l j ,.T.4X5XgXgX5XuX8XuX4XdXgX",
";X:X9XrXeX5X1X1X4X`.T.| $ R 0.{.<XxXxXyXuX<XT.z.u @ @ A & 7 N.XXqXVX|.).Z.1 b q #. X X,XaX1X[.}.o.} 2 ) `.4X3XjXdXlXuX4X4X6XdX1X",
";X:XyXmXmXrXqX5X2X).V.{ c j W.}.[.5X+X9X9X$XR.I   ; B @ @ D K W.~.BX6XY.z.8 8 w K.).4X5X6X2XXXQ.l.H b z P.*X6XyX8X*X8X4X5X5X5X5X",
";X:XlXmXmXmXgX:X2X).V.` f k Y.oX[.:X&X9X%X`.U.L * - / / & y F 0.6XxX{.W.l.J t l K.`.4XlX5X6X2XQ.x.H c j c.$X4XuX*X8X*XtX:X:XdX6X",
";X:XuX8XmXmXgX5X2X XV.N f m Y.}.[.qX&XuX$X`.F.F 0 * w.l.a t = G {.).U.D.8.i t w U.`.lX5X3X6X2XQ.D.u c j c.$X4XtX8X*X8X4X:X5X6XlX",
":X:XyXmXmXmXqX:X1X{.V.N 4 { G.}.1XBX5X4X$X(.N.F w , g.Z.&.d =   O.F.G.S.! ; t q T.$XyXiX3X5X2X{.D.u p z d.$XzX6X8XuXuXuXgXgXlXxX",
":XdXuX8XmXyXjX5X1X XZ.N 4 &.z.Q.2XrXrX4X XQ.x.w 9 j V.L.g.=.=   9 e.S.r.; ; i ..).4XlXwX0XdX2X{.S.J d z c.<X6XzXuXuXyXlX5XaXdXxX",
"5XsXyX8X8XyXqX:X1X{.J.&.4 M <.R.<XlXlX6X X{.M.e q ) L.(.R.f.K   = K / / % ; s h.(.4XrXwXiXdX2X).r.J d m C.2X4XzX4XuXuXxXdXdXyXyX",
"6XuXyX8XyXuXqX5X2XXXU.2.c v &.K.<X*XxXdX|.XXm.x x ] (.$X{.Y.0.K 0 # - ; - - E Z.$XxXNXNX3X6X<XR.=.u d z T.2X,XaXuXyXyXlXrXVXyXmX",
"uXuX8XyXyXxXgX:X5X<XT.,.N t n N.`.4XxXdX3X6Xb.( ] ' `.<X X XY.*.9 = J # s T :.).<XdXrXhX5X4X XU.^ t s P R.6X^.aXlXlXxXlXyXyXyXmX",
"yXuX8XuX8XuXsX5X~.6X Xv.2.1 t <.K.2X&X3XVXyX$X3.@.c.^.6XzX6X XR.0.} k O z :.U.<X!.xXVX3X4X<XU.M.$ d l s.XX'.3XxXlXdXlXyXuXyXyXmX",
"8XuXyX8XuXuXjX5XdX|. X).+.2 n W F.).#XVXmX7X*X(.T.).2XaX1X3X$X$X XU.Z.C.K.R.,X4XxX&X4X4X`.{.F.| w w ;.U. X<X4XuXiXdXlXuXuXyXrXyX",
"yXuXuXuXuXlXdXiXVX_.<X<Xa.z l 7 0.U.<X8X9X9XyX4X2X2X6X5XiXiXuXxX<X X X X<X<X<X$XzX4X<X`. XU.;.l l k C.{.`.xXuXuXdXiXlX4XuXuXrXeX",
"yXrXuX4XuX4XsXdXrXxX3X`.R.9.q 7 9 0.T.$X%X8X4X$X2X<X1XsXrXbXyXyX4X&X$X<X4X<X3X<X_.6X<X).Y.q.r l l  .R. X$XxXuXyXdXiXlXuX8XuXdXdX",
"dXrXuXuXuXuXuXrX&XVX3X_. XF.o.7 * r >.(.$X=X/.XXXX<X4XyXVXyX6X3XVXxX4X4X4X4X4X4X<X(. XR.;.l s 7  .P._.2X4X*XyXyXeXsX6XuX4XuXdXiX",
"NXeXlXlX4X4XuXyXvX0XrX6X'.{.N.G * . M <.J.).{.XX2X2XyXmXmXVX4X6XlX6X4X3X4X<X<X<X2XR.V.9.T , 8 n d.2X,X1XVX8X9XmXrXsXuX4X*X4X5X:X",
"NXjXdXlX4X4XyXmXbXcXVXaX|. XW.e.K u y 4 &.z.D.Q. X*X9X9X9XmX4X2X,X3X4X4X4X4X X).C.V. .q s s ! w.T.2X6XgXbXmX9X9XeXeX4X4X4X4X:X:X",
"jXdXlXlXuXuXuXyXvXVXVX3X6XXXR.Y.l.K t 8 8 G Q M.T.`.=X%X=X`.Q.{. X`.`.`.{.).T.F.#.P e O X T z.U.<X!.aX5X&XVXmX8XrXdXuX4X4X4X:X:X",
"dXlXlXrXlXuXuXyXrXlXdXlXuX4X4X XW.x.o.L F 0 s t n =.g.V.V.Z.F.Y.D.N.S.N.l.-.n < t q q x #.m.{. X4X4XlXdXyXlXyXuXyXlXyXlXuX4XlXdX",
"lXlXuXlXlXyXxXuXlXlXuXlXuXxXlX2X{.Q.G.0.E q p n t a D v H P T E W K u u - u y y t p } u.T.2X2X,X4XlXxXlXuXlXlXuXuXlXlXuXuXxXlXlX",
"lXyXuXlXlXlXlXyXyXyXlXlXuXlXuX4X_.<X2X XU.i...c p 8 7 7 9 F L G L k k w s p p s T <.Z.).`. X4X4XuXlXlXuXlXuXyXlXlXlXxXlXuXuXuXlX",
"lXlXuXuXyXlXuXlXlXlXlXyXlXxXrXlXVX4X$X$X<X(.K.h...} T P L O o o + + + O h E ;.h.Z.U.).<X<X6XlXlXxXlXyXlXyXlXlXuXyXlXlXyXlXlXuXuX",
"uXxXlXyXlXlXlXuXxXlXlXlXuXyXlXrXmXmXyXuX$X`.`. X).T.F.A.j.p.$.$.@.3.B.L.R.R.R.R. X`.`.<X3XxXVXVXlXyXlXlXyXlXxXlXlXyXlXyXyXlXyXlX",
"yXlXxXuXlXyXlXyXuXlXyXyXuXlXlXuX+XvXVXVXyX<X X<X X X X).).(.).`. X$X`.`.(.`.<X<X_.`.xXxXtX7X7XVXrXlXyXlXxXlXlXyXlXlXuXlXlXxXuXlX",
"lXlXlXlXlXuXlXlXlXyXuXlXuXlXuXuXzX6X,X,X,X6X6X6X6X4X4X<X*X%X4XuX$X%X4XuXxXxX4X,X6X3X#XrXVXVX7X+XuXuXuXuXuXlXlXlXuXxXlXxXlXyXlXyX",
"lXyXyXlXyXlXuXxXlXlXuXlXuXxXuXlX3X2X4X6X6X6X1X,X2X4X4XuXyXmX9X8XyXuX*X*X4XuX6X5X6XlXxXVXmX7XmXVXuXlXlXuXlXyXyXlXyXlXlXyXlXlXuXlX",
"xXuXlXyXlXyXyXlXyXlXlXyXlXuXlXuX4X4X<X2X5X6X3X4X6XlXuXuXyX9X9X9X8XyXuXuXuX4XlX5XsXsXlXlXyXyXyXyXyXlXlXlXlXlXuXlXlXlXlXyXlXlXyXlX",
"lXlXuXlXxXlXlXuXyXlXlXyXxXlXuXuX4X4X4X4X6X5X5X6X5X6X4XuXyX8XuX*X8XuX8XuXuXuXlXsXsXlXlXrXuXuXyX8XuXuXuXyXyXyXlXyXlXyXxXlXlXuXyXlX",
"yXlXyXlXlXyXlXlXlXxXlXlXuXuXuXuXmXyXyXyXlXlXlX6X6X6X4X4X4X$X4X4X4X*XuXuXlXlXrXsXlXrXuXuXuXuX4XuXuXlXlXlXlXlXxXlXlXlXuXyXuXlXlXxX",
"yXlXlXuXlXlXyXxXlXuXyXlXlXlXlXyXmXmXmXmXrXrXlXlX4X4X2X4X<X<X2X<X4XuXuXuXyXtXlXsXlXuXlXlX4X*X4X4XuXxXyXlXxXuXlXlXyXlXuXlXlXlXyXlX",
"lXlXlXuXuXuXlXlXlXuXlXxXuXyXlXrXmXmXmXmXmXrXyXxXtX4X3X<X4X<X<X4X4XlX4XuXlXlXrXtXrXlXuX4XlX4X4X4XuXyXlXlXlXyXlXyXlXyXyXlXyXlXyXlX",
"lXyXlXxXlXlXyXlXyXlXyXlXuXlXlXuXrXrXbXrXrXyXlXrXsXtXuXlX4XuX4X6X6X5X6XlXlXyXrXlXrXlXrXuXuX6X6X6X6XlXlXuXuXlXuXlXlXlXlXxXlXuXuXlX",
"yXlXyXlXlXyXlXyXlXlXyXlXyXlXyXlX6X5X6X6XlXlXyXyXyXvXbXbXvXmXvXcXsX5X5XlXlXeXrXmXbXrXrXlXlX6X5XlXlXlXyXlXyXlXyXlXyXlXlXuXlXyXxXlX",
"lXlXyXlXlXyXlXlXxXuXlXuXlXdXlX6X5X1X3X5X4XuXdXbXmXmXmXvXvXvXvXvXiX5X5XdXrXeXbXmXbXrXbXeXeX5X5X5XlXyXlXuXlXxXlXuXuXlXlXyXlXlXlXyX"
};
