/* XPM */
static char *_aae1bc22c6a4a66de1789fa7d12e161vzXDpQVGKZ1ZkhNm[] = {
/* columns rows colors chars-per-pixel */
"64 64 199 2 ",
"   c #C5949A",
".  c #C8909D",
"X  c #CC9A9F",
"o  c #C696A4",
"O  c #CD95A4",
"+  c #C69BA4",
"@  c #CC9BA6",
"#  c #C59EAA",
"$  c #CD9DAA",
"%  c #D296A5",
"&  c #D39DA6",
"*  c #DB9BA6",
"=  c #D39DAB",
"-  c #D99DAA",
";  c #CF9EB1",
":  c #D39FB1",
">  c #DE9FB0",
",  c #CEA1A5",
"<  c #C5A1AA",
"1  c #CDA2AC",
"2  c #D2A2A5",
"3  c #D3A2AD",
"4  c #DCA2AD",
"5  c #D5A8AF",
"6  c #CEA4B1",
"7  c #CDAAB3",
"8  c #CDABBA",
"9  c #D4A4B2",
"0  c #DAA5B3",
"q  c #D5AAB4",
"w  c #DBAAB5",
"e  c #DAA6BC",
"r  c #D5ACB9",
"t  c #DCADBA",
"y  c #D3B0B7",
"u  c #DDB0B5",
"i  c #D4B1BC",
"p  c #DDB3BD",
"a  c #D6B9BE",
"s  c #E1A2AE",
"d  c #E2A4B2",
"f  c #E2ADB5",
"g  c #E8A8B6",
"h  c #E2ACB9",
"j  c #E1B0B6",
"k  c #E3B2BC",
"l  c #EBB4BB",
"z  c #F0B7BE",
"x  c #DBAEC1",
"c  c #D4B4C1",
"v  c #DDB4C2",
"b  c #DEBBC5",
"n  c #DDB6C8",
"m  c #DDBDCB",
"M  c #E3B5C2",
"N  c #ECB6C5",
"B  c #E4BBC5",
"V  c #EBBAC5",
"C  c #E2B5C8",
"Z  c #E4BCCA",
"A  c #EABDCB",
"S  c #F2B5C3",
"D  c #F4BDC5",
"F  c #F3BDCA",
"G  c #FDBDCB",
"H  c #E7BFD1",
"J  c #E8BFD1",
"K  c #DEC0CA",
"L  c #DDC7D3",
"P  c #DDCAD3",
"I  c #D7CDD8",
"U  c #DECDDB",
"Y  c #D4D5DA",
"T  c #DDD3DB",
"R  c #E3C0C7",
"E  c #EAC1C6",
"W  c #E5C3CD",
"Q  c #EBC3CD",
"!  c #E1C8CE",
"~  c #E8C8CD",
"^  c #F9C0C7",
"/  c #F2C2CE",
"(  c #FCC3CB",
")  c #F3C8CF",
"_  c #E5C4D2",
"`  c #ECC4D2",
"'  c #E4CBD5",
"]  c #ECCBD5",
"[  c #EBC6D9",
"{  c #E4CEDC",
"}  c #ECCDDB",
"|  c #F2C5D3",
" . c #FBC5D2",
".. c #F3CBD5",
"X. c #FCCBD4",
"o. c #F3CDDB",
"O. c #FACDDB",
"+. c #E3D4D7",
"@. c #EED2D7",
"#. c #E4D2DD",
"$. c #EBD5DE",
"%. c #E9D5DE",
"&. c #ECD5DF",
"*. c #EAD1DD",
"=. c #E2D9DE",
"-. c #EDD8DF",
";. c #F5D0D7",
":. c #F1D3DD",
">. c #F1D1DE",
",. c #F1D3DF",
"<. c #F1D1DE",
"1. c #F1D6DD",
"2. c #F2D4DE",
"3. c #F3D1DD",
"4. c #FBD1DC",
"5. c #D6D6E0",
"6. c #DFD1E0",
"7. c #DED6E1",
"8. c #DFD4E5",
"9. c #DFD7E4",
"0. c #DDD2E4",
"q. c #DED8E4",
"w. c #DED9E1",
"e. c #E3CEE1",
"r. c #E6CEE3",
"t. c #EBCEE0",
"y. c #EACFE0",
"u. c #E8CFE2",
"i. c #EBCEE2",
"p. c #EACFE2",
"a. c #EFCCE0",
"s. c #EDCEE0",
"d. c #EDCDE2",
"f. c #EFCDE2",
"g. c #E8CFE4",
"h. c #EACEE3",
"j. c #F1CBE0",
"k. c #F1CBE2",
"l. c #F2CFE1",
"z. c #F8CFE1",
"x. c #E2D1E1",
"c. c #E3D3E0",
"v. c #E1D3E2",
"b. c #E0D2E3",
"n. c #E3D2E2",
"m. c #E7D0E0",
"M. c #E6D1E0",
"N. c #E4D2E0",
"B. c #E7D2E1",
"V. c #E5D0E3",
"C. c #E7D0E2",
"Z. c #E6D1E2",
"A. c #E4D2E2",
"S. c #E5D3E3",
"D. c #E0D6E1",
"F. c #E2D4E3",
"G. c #E1D5E0",
"H. c #E7D6E0",
"J. c #E6D6E1",
"K. c #E5D6E1",
"L. c #E0D3E4",
"P. c #E1D3E4",
"I. c #E0D3E5",
"U. c #E1D2E5",
"Y. c #E3D2E4",
"T. c #E1D3E7",
"R. c #E3D0E4",
"E. c #E4D1E4",
"W. c #E7D0E4",
"Q. c #E6D1E4",
"!. c #E6D0E5",
"~. c #E2D6E4",
"^. c #E6D1E1",
"/. c #E8D0E0",
"(. c #EBD3E0",
"). c #EDD3E0",
"_. c #EFD3E1",
"`. c #EDD2E3",
"'. c #E9D2E6",
"]. c #EAD3E7",
"[. c #EDD2E5",
"{. c #EED3E6",
"}. c #E9D4E5",
"|. c #EAD2E1",
" X c #E4D9E2",
".X c #EBD9E4",
"XX c #E2D3E8",
"oX c #E9D3E8",
"OX c #E3D8E9",
"+X c #EBDBE8",
"@X c #F0D1E0",
"#X c #F1D1E1",
"$X c #F2D1E1",
"%X c #F1D2E4",
"&X c #F3D3E1",
"*X c #F9D4E3",
"=X c #F3DEE7",
"-X c #F9D8E4",
";X c #F5DAE9",
/* pixels */
"#.#.#.#.#.K.0.K.T I.N.N.N.#.+.#.T T T x.N.*.`.*.} /.} N./.N.N.T T =.+.} l.o.f.f.e.0.9.q.K.T N.B.T =.J.#.N.'.Q.U XXT.Y.9.I.N.u.a.",
"#.#.#.#.x.K.0.x.x.x.K.#.#.#.*.=.T #.{ #.#.#./.} /.} *././.N.N.#.T +.#.} o.k.f.g.u.I.9.7.0.T { +.+.T +.+.{ u.'.I.r.I.I.I.N.u.u.u.",
"#.#.#.#.K.x.x.Q.Y.Q.#.{ { *.%.*.*.#.#.#.#.{ #.{ /.#.#.#.N./.N.#.=.T #.} a.a.f.u.K.9. XD.T +.{ { %.+.#.*.} [.{.oXI.I.I.x.N.Q.u.a.",
"#.#.#.#.K.N.x.N.N.N.{ { &.&.@.@.} &.&./.*.*.{ { #.*.#././.N.N.#.+.#.#.&.u.a.a.u.x.K.7.D.#.*.} ] @.-.:.:.@X%X%X{.g.I.I.I.I.N.u./.",
"#.#.#.#.N.K.N.Q.x.{ &.@X3.} ] ` o.o.l.3.).$.#.U #.#.K.#.N.N././.#.#.*.u.u.u././.U T #.#..X;.3...~ ~ E W Q ` o.k.u./.I.x.Q.Q.g.Q.",
"=.T N.#.x.K.N.N.{ } l.o.| Q B M A J [ o.&X/.#.+.T K.T K.N.u././.N.u.N.g.u./.N.#.T T #.$.:.o.| Q a 5 5 4 5 p Z } } u.N.Q.Q.Q.Q.g.",
"#.B.#.#.x.N.N./.{ `.l.[ Z t w 0 e M A | @.B.#.#.#.D.=.T N.{ /./.u.u.Q.N.N.x.N.#.#.#.#.@.] Q M f 5 2 X X O 3 h A o.} N.N.I.Q.Q.Q.",
"#.#.#.#.#.x.N./.} @Xo.` M 3 O = = 9 M Q [ &.#.#.T T T K.N.u./.g.g.g.Q.Q.Q.K.#.#.=.%.@.;.~ B w & 2 2 2 2 & & 0 M o.a.} u.N.I.Q.Q.",
"*.N.#.*.N.N.#.u.' a.*XZ 0 = O g O 0 O t o.] $.+.#.T K.#.N./.g.h.h.r.e.r.K.T x.#.' *.;.~ p 3 $ 3 X 3 l G * : 0 0 o.} } N.x.Q.Q.g.",
"#.*.#.#.N.N.N.*.{ } 3.k 9 - * S d - : 9 Z } } =.#.#.T #.N./.u.h.g.r.e.e.K.#.#.#.+.] ~ k 5 $ @ 2 j l D ( - - = 0 o.} #.u.N.Q.!.Q.",
"} N.u.N.N.N.u.u.[ } ] t = - 4 G S - 0 = r ] ' &X#.#.N.#.N./.g.g.oXg.r.{ N.B.B.@.3.` p 5 @ , w u ) X.X. .s - = : o.o.*.u.Q.g.!.!.",
"*./.#.u.N.N.N.#.*.} [ w O - d (  .w 0 , $ B ] 2.*.#.#.*./.N.N.Q.g.g.r.e.#.B.&.] o.A 9 + , w R ) ..X.X.F 0 = 0 t O.[ &.} u.g.!.!.",
"} N.N./.N.N.#.*.*.@.| q $ & s ( X.E 4 3 # 9 o.o.} &.} } /./.Q.N.g.g.u.#.x.B.&.] V w % O 0 Z ] 3.] ..| M e $ e N o.o.*./.N.N.g.g.",
"u.} /.u.N.N.#.#.{ $.] r = & s ( X.X.u q @ + Q ` o.} u.} /.N.N.Q.e.g.#.{ $..X] Q 3 = O : k | @.*.] @._ q 9 $ w A o.} } /.u.u.g.g.",
"a.u./.N.u.N.#.#.*.@...p 2 & s ^ X.X.V w $ @ t ` o.o.} a.u./.x.I.e..Xx.#.+.@.` p % % - h Q o.*.' { } H 6 9 $ k | ..o.} } u.u.g.g.",
"/.N.} u.N.N.N.#.#.*.] p 2 2 4 ^ ) ..;.q 1 3 $ / o.[ &./.N.x.Q.x.e.N.N.#.} } A w - - d N O.*X@.P } [ Z # q 1 M o.} } *.} u.u.u.u.",
"N./.N.Q.N.N.N.#.P =X' W 5 & * F ] ~ 3.| 9 $ 9 6 ] } +.#.x.I.r.0.I D.#.' z.F 0 - . 0 / o.@.*.#.@.W 4., # 7 1 @.3.*.#.*.u.#.u.#.u.",
"N.N.Q.N.'.u.N.#.T .X@.~ 5 = * S ] +.&X| w = 9 1 ] *..XN.0..XoXQ.D.#.+.3.O.N > : & k Q &.*.#.#.&.) l 3 , 1 c @.#.N.#./.N.N.u./.{ ",
"K.K.x.Q.N.g.N.#.#.#.@.] 1 @ 4 f ;.' 3.o.M 9 = 9 b ! #.+.{ { t.r..XP } 2.A h 4 = h V | @.*.*.B.&.) X 5 , , ] } } *.N.N././.N.*./.",
"x.#.N.N.Q.N.N.N.#.{ #.@.q $ 4 2 ] @.3.4.A w = 3 r B } $.} { [ t.$.' ] O.x = = = V ` ] } *.*./.} R   3 , y -X{ +.#.*.u.N././.{ *.",
"N.N.N./.u.Q.N.N.K.P B.] p 3 - @ ~ ] o.O. .M = = q Z 3.*X*Xz.z.O.} ] 4./ 9 = 3 $ ` ] } } } `.u._ w 2 + , ~ -X[ #.*.N./.N./.u.*.} ",
"x.N./.N.u.N.N.N.#.{ &.] Z 9 4 @ v ` o.O.O.S 0 = 9 p Q  .` | ` A | 4.O.A 9 3 0 q ..] { @.`.a.[ Z , w @ y *X;.} #.u./.N./.N.u.} N.",
"N.N.N.u.g./.u.N.U #.$.' ] t 3 = q Z | ..O. .h = @ 3 w w 0 t e 0 k V V w 3 = q R *.] ] *.k.f.C x # 9 q W ;.} *.#.u.#.u.N.N.*.N.*.",
"K.N./.N.u.u.g./.{ #.).' 2.p 9 $ 1 Z |  .z.O.t 3 $ = 3 & $ = = = = 9 = & 3 # q ] @.@.{ *.k.[ n ; 2 @ M ..] } ).{ N.N.N.N.*.{ #.u.",
"#.#.x.N.u.u./.Q.N.#.*.&.o.Q t @ o w A | O.4.F 0 $ $ = = & & = 2 = = = @ @ 9 n ] } *..X&X[ Z x : + p | 3.} ' { #.u.#.N.N./.*.{ /.",
"#.#./.N.u.u.u./.u.x.#.*.&.] M 9 : = t | 4.o.Q Q 9 9 0 3 0 5 w 0 u t t t r v W *.' #.@.} W x : % 9 k | o.} } } $.N.N.N.N.*.N./.*.",
"#.#.N.u.a.'.g./.N.#.#.*.&.| A t 0 = = M o.o.o.o.` | |  .| | | | | / Q A A _ } &.' +.*.` v 0 = = M Q o.o.] } `.B./.N.N.N.} #.*.} ",
"#.#.u.*.u.u.g.g.u.x.u.{ `.@X[ A - = = 1 v 3.*X] o.z.o.o.4.3.4.3.2.3.o.] [ o.3.&.$.).@.W t 9 > g  ...o.o.{ } './.N.Q.N.N.N.N.*.*.",
"#.#.u./.u.a.g.g.x.x.e.{ *.&Xl.| h d = < a } @X{ [ [ [ [ } [ *.+.&.&.} } &.@X} } &.&.] B q = d g | O.*X[ { } u.N.N.Q.N.N.#.*.} *.",
"#.#.N./.a.u.g.g.Q.N.T { *.`.k...S d = y W ' +.B.} } a.} `.&.J.#.+.#.+.{ } } u.} { { ` p 3 * - d A ] o.} { } g.u.Q.N.N.N./.#.} *.",
"x.#.N./.'.a.g.g.Q.N.x.U { `.3...N s = p ' +.{ Q.e.{ t.} { #.K.T T T K.#.#.} } /.' ] ] B w - * - t Z } o.} u.g.N.x.I.N.N.*.#./.*.",
"#.#././.u.u.g.'.'.Q.#.{ } } o...* - w t K .X.X{ u.u.u.u./..X9.q.T 7. XN.*.} `.@X} ;...] l 0 - - $ v ` } &././.Q.N.N.N.N.N./.#.*.",
"#.#.#.*.u.N.g.N.e.x.T ).} | O.q 2 2 q ..a._ ;XU } } } { u.OXOX8.5.Y w.N.$.3.} W R ] 3.o...` M = $ 1 9 R @.{ ).{ x.x.x.I.N.u.#.} ",
"T #.#.#.u.u.N.Q.#.K.{ ).} [ O.0 2 5 p ..u.[ { m [ ] &.} { Q.8.0.5.Y 7.#.+.} ] n y B ] ] o.o.J x $ 3 1 B ] { .X+.#.0.K.Q./.'.u.u.",
"#.#.#.#.*.u.Q.N.x.N.#.`.} | ` 0 0 5 Z o.} } m c K ] ;.3.*./.Q.0.5.T T +.*.] B y < a ] ] } *Xl.J 0 3 < k ] } {.#.K.7.x.x./.u././.",
"T #.#.#.u.N.N.Q.N.N.#./.3.[ N 9 5 1 | o.l.} r 8 a R o.3.3.a.[./.#.K.+.{ } ` p q # c ] } } *X*Xo.k 5 @ t ~ &X).+.x.#.x.x.Q.N././.",
"#.#.#.#.{ /.N.N..XK.#.{ l.[ t 3 1 w ..3.l.} 8 8 q Q O.4...] [ { +..X@.] 4./ t 1 < m &.} } h.k.o.F 0 $ 0 Z 3.*.{ x.x.N.N.N.N.u.u.",
"T D.#.#.u.#.'.N.K.x.B.{ l.` 9 3 2 v | 3.%X[ c 6 t E 4.X.A M n Z _ ;.o.[ O.Q q 6 6 m } /.u.[.{.o.( d = = B 3.{ { N.K.Q.I.'.N.*.u.",
"=.#.N.#.u.u.Q.K.x.K.B.' &.| 6 3 1 Q ] 3.*X_ v q 5 D X.^ j 4 9 r b ;.O. .O.A 9 6 r _ `.*.u.`.[.}  .d - = M o.{ } N.N.x.x./.N.u.#.",
"#.#.#.#.N.u.N.x.#.#.B.' *X[ ; $ q | ` l.;X_ n w 5 z X.z 4 @ $ 3 u ..|  .X.N = 6 i _ `.*.u./.'.[  .d - = M *X[ `.N.N.Q.N.Q.N.u.u.",
"T #.#.#.N./.N.Q.U .X#.' *X` 6 : # ..[ [ o.} J 9 2 h ^ l 4 * 5 = 0 p  .4.F e : 9 m _ /.[.u.{ { k.F g & 0 A o.o.{ /.N.N.x.Q.N.u.u.",
"T #.#.#.N./.Q.N.U OX#.{ *X` 9 9 , O.o.[ l.} ` r 5 f D l 4 5 h w 1 q V / M : : e _ [ *.B.} { u.o.N 0 - t ` o.} #.N.N.I.K.N.'./.{ ",
"=.#.#.K./.u.N.Q.#..X+.{ &X` 9 $ 1 | o.o.l.l.[ x 5 w j f 5 h V M 1 1 q w 9 $ 9 x } } } N.*.&.a.o.g - - h | o.*./.N.N.N.Y.N.Q././.",
"#.#.#.#./.N.Q.N.x.[.{ { `.Q 9 ; 6 ~ 3.o.l.l.[ n q 3 4 3 5 M | [ y q 1 1 ; ; x J } } } `.`.3.[ | 0 % 2 B | [ } .XN.N.x.N.'.N././.",
"#.#.#.#.N.N.Q.N.#.N.#.*.o.J t $ 0 M o.l.f.l.[ H 8 $ $ 1 q B o.} b a y q r v J k.f.} } `.3.o.Z M = & w A o.} { ).x.x.N.I.N.N.u./.",
"T #.#.#.u.} N.Q.N.0.#./.l.` x 9 9 r ..z.{ k.} [ p 9 5 q p ` a.} ' P K n m H } *X} } &.3.] Q v t = 5 k | ;.*.#.#.K.K.N.x.u.u././.",
"#.#.#.*.N.u.Q.N..XU N.).} [ C 9 1 6 [ o.[ f.} f.` v p b ! } [.{ +.%.] ' [ o.z.l.[ } } [ ` b q 2 3 k / ;.3.*.#.x.x.7.Q.x.Q././.u.",
"K.T #.#.u.u.N.Q.N.#.*.).&.` Z 9 2 # ` z._ f.} o.o.~ ! ] ] *.'.+.+.+.#.%.`.@Xf.[ k.} o.[ B t 2 $ 1 B @.;.@.).B.+.x.#.N.Q.N./././.",
"K.N.N.N.N./.N./.{ N.{ /./.*.{ _ + , u E 3.4.;.! ~ ] @.' +./.B.N.T Y T T ' } o.o.*X| A h 0 3 3 1 ] { } } /./.B.B.N.N.N.N./.N././.",
"N.N.#.u./.N./.N.#.u.N./.B.N.{ _ 1 2 2 u E ;.;.;.2.3.$.*.{ ' ' L T T +.#.@.} o.| / V h 9 = 3 w k { #.#.#./.N.N././.N./.N.N././.N.",
"N./.N.u.N./.N././.N.N.N./.N.{ { p 5 @ @ 5 B ) 4.Q ] ] ;.3.).@X@X@.#.&.;.o.[ J F t 9 $ $ 1 w E ] } { N.N.N.u.u.N.N./.N./.N./.N./.",
"/.N./.N./.N./.N./.N.u.{ N.N.N.} Q k 5 + , q k R O.O.3.o.o.o.| ` ;.;.| ` A M t e = = 1 q i Z ] *X/.N.N.u.#.x.{ { /.N./.N./.N./.N.",
"N./.N./.N./.N././.N.N./.u.N.'.`.o./ k 0 1 1 $ $ 1 0 t M A | o.O.A A M t > : : ; ; 9 v Z _ } @.$./.N.u.{ N.u.{ N.N./.N./.N./.N./.",
"/.N./.N./.N./.N.N././.N.#.{ /.&.4.o.` Z v 9 # o 9 9 9 9 9 9 6 3 9 9 = = = = ; : t n [ o.).*.#.{ B./.N.N.{ { { u./.N./.N./.N./.N.",
"N./.N./.N./.N./.N./.'.N.u.N.{ /.`.o.o.] ` C x r # $ $ $ @ : 9 0 $ $ = 9 w x C C A [ } `.B.$.#.U B.N.#.{ x.u.#.N.N./.N./.N./.N./.",
"/.N./.N./.N./.N.#././.N.#.{ { /.[ { } `.3.[ ] [ n v r r 9 9 3 9 9 r t M A ` o.o.z.`.} } { U x..XN.B./.#.{ N.N././.N./.N./.N./.N.",
"N./.N./.N./.N./.N.N./.N./.N./.N.N.*.u.*.} *.} } o.o.o.o.o.......[ @.@.} o.@.} } u.} /././.N.Q.N.N./.N./.N./.N./.N./.N./.N./.N./.",
"/.N./.N./.N./.N.N./.N./.N./.N./.N.x.N.N.#.N.} &.} @.} ] ;...o.o.*.#.#.#.#.*.#.*.} *././.u.N.N.Q./.N./.N./.N./.N./.N./.N./.N./.N.",
"N./.N./.N./.N././.N./.N./.N./.N.N.K.K.N.N.#.N.#.#.+.*.} *.} } } +.T K.#.T K.#.#.N./.#.u./.N.u./.N./.N./.N./.N./.N./.N./.N./.N./.",
"/.N./.N./.N./.N.N./.N./.N./.N.N.x.x.x.x.x.N.#.#.#.*.*.#.} +.+.*.#.T T 7.#.#.#.#.N.N./.N././.} N./.N./.N./.N./.N./.N./.N./.N./.N.",
"N./.N./.N./.N./.N./.N././.N./.N.N.N.N.N.N.N.#.#.N.#.#.*.*.#.*.#.x.x.x.I.K.x.x.#.N.u.N./.*.N.*.#.N./.N./.N./.N./.N./.N./.N./.N./.",
"/.N./.N./.N./.N./.N./.N.N./.N./.N.N.u.u.u././.*.*.N.#.#./.N.#.#.N.N.Q.g.x.Q.N.N.N.N./.#.#.*.#.*./.N./.N./.N./.N./.N./.N./.N./.N.",
"N./.N./.N./.N./.N./.N./.N./././.*.} /.} *.} /.N./././.N.N.N.N.N.g.h.g.d.h.g.g./.N.u.#.u.#.#.#.#.N./.N./.N./.N./.N./.N./.N./.N./.",
"/.N./.N./.N./.N./.N./.N./.N.N./.} u.*./.} /./././.u.N./.N.N.N.g.[.k.[.k.h.h.u.g.} u.#.*.#.*.$.#./.N./.N./.N./.N./.N./.N./.N./.N."
};
